<svg width="820" height="494" viewBox="0 0 820 494" fill="none" xmlns="http://www.w3.org/2000/svg">
<path fill-rule="evenodd" clip-rule="evenodd" d="M429.836 211.221C441.744 208.358 462.055 203.477 465.151 201.495L466.06 201.122L466.782 200.968C459.842 193 438.194 171.671 423.059 156.749C416.051 149.85 410.42 144.296 408.197 141.987L407.084 140.778C405.525 139.078 404.82 138.31 401.289 139.042L319.161 161.558L321.615 164.094L321.838 164.353C324.928 168.435 338.949 182.679 353.953 197.5C368.719 212.094 384.268 227.156 391.099 233.487C391.344 227.524 391.785 224.316 395.308 221.543C398.607 218.943 404.32 217.525 415.656 214.712L422.905 212.898C423.814 212.671 426.559 212.012 429.836 211.221ZM484.749 182.915C485.194 181.511 485.43 179.87 485.612 178.075L485.699 177.634L511.082 84.4884C509.037 85.1565 507.569 85.8657 506.387 86.4338C503.456 87.8428 501.761 88.6562 498.697 87.329V87.3199C495.57 85.97 491.621 82.0251 482.276 72.6851L476.281 66.704C473.554 63.9861 470.523 61.1 467.428 58.1457C460.306 51.3464 452.825 44.2106 446.725 36.9886L445.066 35.4615C442.748 42.5972 437.644 60.5316 432.763 78.4662C427.604 97.4098 422.759 116.19 421.719 122.194L484.381 183.883C484.517 183.565 484.635 183.247 484.74 182.915H484.749ZM320.392 105.337C317.643 115.031 314.82 124.98 313.493 133.22L313.407 133.597L312.266 137.32C320.933 135.443 339.995 130.52 358.029 125.603C377.218 120.376 395.053 115.254 397.448 114.017C398.603 111.531 404.493 90.8287 410.192 69.8808C414.719 53.2143 419.042 36.5433 420.696 28.7941L416.446 29.6804L321.488 55.3731L321.538 55.4141C332.205 63.2634 331.855 64.4678 327.678 78.8346C326.783 81.9116 325.678 85.7156 324.351 90.9242C323.224 95.3601 321.815 100.319 320.392 105.337ZM298.681 94.5058C301.167 84.6613 303.067 76.3801 303.408 72.9031C300.794 71.3397 298.113 69.8852 295.581 68.5126C285.309 62.9405 277.147 58.5137 278.365 49.36C279.424 41.4381 286.127 39.7885 292.581 38.2023C293.545 37.9659 294.495 37.7294 295.131 37.5567L295.14 37.5432L388.176 12.6227C400.684 9.49579 409.824 6.6825 416.855 4.52362C427.768 1.1694 433.822 -0.689484 439.399 0.237701C446.466 1.41031 451.443 6.68265 462.601 18.4951C464.91 20.9358 467.487 23.6671 470.318 26.6123C473.064 29.4665 477.654 33.9617 482.599 38.8067C490.748 46.7878 499.87 55.7231 503.647 60.1863C506.415 59.2637 509.755 57.2184 513.196 55.1095C521.3 50.1555 529.908 44.8834 537.339 49.7784C545.656 55.2597 540.284 71.8714 536.939 82.2068C536.41 83.794 535.912 85.3911 535.444 86.9973C532.598 97.4286 529.818 107.878 527.104 118.344C523.486 132.166 519.882 145.937 516.173 158.94C513.608 168.062 511.149 177.213 508.796 186.392L506.46 195.346C505.77 197.993 505.124 200.652 504.524 203.322C501.511 216.471 501.411 216.903 483.758 221.684V221.675L415.324 240.514C415.31 242.028 415.351 243.795 415.401 245.709C415.583 253.253 415.81 262.866 413.065 268.957C410.447 274.765 405.716 277.569 397.221 273.729C394.067 272.311 342.213 219.793 315.229 192.464C310.402 187.567 305.566 182.678 300.721 177.797C297.495 174.561 294.722 171.98 292.436 169.848C282.401 160.504 280.642 158.863 284.419 146.291C286.632 138.915 293.786 113.886 298.681 94.5058Z" fill="#1C70EB"/>
<path d="M19.1961 438.248H84.512V461.193H0.440186V326.4H26.4978V430.003L19.1961 438.248ZM124.165 413.686C124.165 426.148 125.684 434.337 128.698 438.276C131.718 442.215 137.635 444.198 146.433 444.198C155.759 444.198 162.838 441.787 167.738 436.97C171.779 432.953 174.125 427.17 174.789 419.691V360.739H200.689V461.193H175.955C177.299 454.664 178.932 448.199 180.851 441.815C179.263 444.144 177.515 446.361 175.621 448.448C167.571 457.626 154.872 462.215 137.524 462.215C122.447 462.215 112.158 458.165 106.682 450.06C101.173 441.931 98.4326 430.342 98.4326 415.27V360.739H124.165V413.686ZM302.17 326.4H328.065V461.193H302.17L307.479 444.537C305.379 447.314 302.444 450.12 298.682 452.949C290.553 458.899 279.429 461.876 265.318 461.876H263.738C248.577 461.644 237.541 457.426 230.597 449.242C223.653 441.053 220.165 428.219 220.165 410.736C220.165 393.346 223.653 380.596 230.597 372.463C237.541 364.362 248.577 360.172 263.743 359.889H265.647C279.647 359.889 290.66 362.862 298.682 368.807C302.444 371.641 305.379 374.451 307.479 377.224L302.17 326.4ZM273.177 444.026C282.555 444.026 289.745 442.075 294.701 438.159C299.29 434.536 301.78 429.264 302.17 422.353V399.491C301.78 392.463 299.29 387.136 294.701 383.513C289.745 379.657 282.555 377.735 273.177 377.735C263.33 377.735 256.409 379.685 252.396 383.629C248.387 387.568 246.394 396.634 246.394 410.797C246.394 425.186 248.387 434.309 252.396 438.192C256.409 442.07 263.325 444.026 273.177 444.026ZM398.838 462.048C381.021 462.048 367.24 458.104 357.504 450.231C347.768 442.354 342.896 429.125 342.896 410.541C342.896 391.957 347.764 378.84 357.504 371.19C367.24 363.54 381.021 359.717 398.838 359.717C416.596 359.717 430.349 363.54 440.062 371.19C449.769 378.84 454.609 391.953 454.609 410.541C454.609 429.125 449.769 442.358 440.062 450.231C430.349 458.104 416.596 462.048 398.838 462.048ZM398.889 444.365C408.992 444.365 416.517 442.382 421.464 438.387C426.42 434.393 428.881 425.158 428.881 410.657C428.881 396.235 426.42 387.057 421.468 383.113C416.517 379.179 408.992 377.224 398.894 377.224C388.768 377.224 381.211 379.179 376.26 383.118C371.281 387.057 368.791 396.235 368.791 410.653C368.791 425.159 371.281 434.393 376.26 438.387C381.211 442.382 388.768 444.365 398.889 444.365ZM498.907 491.789H473.012V360.056H498.907L493.593 376.629C495.642 373.851 498.573 371.102 502.391 368.329C510.524 362.351 521.788 359.378 536.173 359.378H537.334C552.495 359.657 563.564 364.107 570.508 372.751C577.452 381.39 580.912 393.996 580.912 410.541C580.912 427.086 577.424 439.609 570.48 448.104C563.536 456.604 552.495 461.026 537.334 461.365H535.755C521.648 461.365 510.501 458.332 502.368 452.298C498.549 449.521 495.614 446.748 493.566 443.938L498.907 491.789ZM506.376 437.569C511.327 441.42 518.522 443.348 527.9 443.348C537.692 443.348 544.613 441.193 548.621 436.859C552.662 432.525 554.683 423.686 554.683 410.314C554.683 396.913 552.662 388.046 548.621 383.713C544.613 379.379 537.692 377.224 527.905 377.224C518.522 377.224 511.327 379.179 506.376 383.09C501.731 386.713 499.237 392.013 498.907 399.04V421.536C499.237 428.614 501.727 433.937 506.376 437.569ZM683.387 443.004C680.456 447.37 677.883 450.598 675.695 452.693C673.512 454.793 670.771 456.576 667.506 458.081C664.241 459.581 660.399 460.682 655.94 461.365C651.04 462.079 646.093 462.421 641.142 462.387C637.212 462.387 633.171 462.099 628.995 461.56C624.848 461.026 620.913 460.12 617.184 458.843C613.607 457.641 610.251 455.862 607.248 453.576C604.31 451.302 601.958 448.359 600.388 444.992C598.73 441.508 597.898 436.942 597.898 431.28C597.898 426.236 598.734 422.07 600.388 418.786C602.046 415.497 604.29 412.664 607.114 410.314C609.933 407.963 613.338 406.119 617.291 404.786C621.378 403.428 625.585 402.463 629.855 401.902C634.254 401.307 638.569 401.019 642.772 401.019H679.072V395.752C679.072 389.974 677.989 385.696 675.834 382.918C673.679 380.145 670.743 378.385 667.065 377.651C663.386 376.908 657.905 376.545 650.659 376.545C644.24 376.545 639.066 376.94 635.164 377.735C631.262 378.524 628.164 380.168 625.87 382.663C623.547 385.157 622.386 389.068 622.326 394.391H598.395C598.674 385.891 600.611 379.379 604.178 374.846C607.75 370.312 611.982 367.084 616.877 365.156C621.773 363.229 626.784 361.868 631.898 361.078C637.045 360.289 643.632 359.889 651.737 359.889C666.122 359.889 676.443 360.994 682.667 363.201C688.891 365.412 694.177 369.179 698.492 374.506C702.812 379.829 704.967 387.568 704.967 397.707V461.193H679.898L683.387 443.004ZM646.428 446.07C650.329 446.07 654.092 445.81 657.715 445.303C661.366 444.792 664.682 443.887 667.757 442.581C670.799 441.281 673.372 439.637 675.444 437.625C677.52 435.642 678.742 433.491 679.067 431.22L679.82 415.641H645.429C642.549 415.641 639.809 415.836 637.24 416.264C634.85 416.628 632.533 417.375 630.38 418.475C628.39 419.501 626.753 421.099 625.679 423.064C624.541 425.075 623.961 427.653 623.961 430.797C623.961 434.42 624.597 437.254 625.865 439.297C627.082 441.264 628.869 442.815 630.988 443.743C633.298 444.719 635.74 445.35 638.234 445.614C640.954 445.922 643.69 446.077 646.428 446.07ZM767.106 442.837L792.504 360.739H819.56L785.448 461.193C778.532 479.55 771.978 489.611 765.777 491.366C759.581 493.122 744.866 494 721.623 494V472.922C740.769 472.922 751.42 472.499 753.58 471.649C755.735 470.766 758.336 467.255 761.383 461.198H751.917L717.392 360.739H744.364L767.106 442.837Z" fill="#1C70EB"/>
</svg>
